<?xml version="1.0" standalone="no"?>
<!DOCTYPE svg PUBLIC "-//W3C//DTD SVG 20010904//EN"
 "http://www.w3.org/TR/2001/REC-SVG-20010904/DTD/svg10.dtd">
<svg version="1.0" xmlns="http://www.w3.org/2000/svg"
 width="512.000000pt" height="512.000000pt" viewBox="0 0 512.000000 512.000000"
 preserveAspectRatio="xMidYMid meet">

<g transform="translate(0.000000,512.000000) scale(0.100000,-0.100000)"
fill="#000000" stroke="none">
<path d="M2505 4953 c-290 -26 -559 -146 -765 -340 -97 -91 -165 -180 -273
-355 -138 -224 -203 -418 -213 -638 -3 -63 -9 -461 -14 -885 l-8 -770 -38
-125 c-37 -123 -38 -128 -38 -295 -1 -136 3 -183 17 -235 51 -179 124 -313
235 -433 l59 -63 -14 -80 c-11 -61 -13 -130 -8 -299 6 -217 6 -220 31 -245
l24 -25 1038 -3 c724 -2 1048 0 1074 8 21 6 43 21 50 33 18 34 23 442 6 537
l-14 75 55 60 c109 120 187 264 233 433 31 111 30 354 0 462 -64 226 -60 158
-70 1085 -11 959 -10 938 -94 1153 -39 101 -153 301 -245 431 -63 89 -202 225
-296 289 -212 146 -529 243 -732 225z m547 -1410 c8 -10 3 -12 -23 -7 -19 4
-35 7 -35 8 -1 1 3 28 9 60 l11 60 14 -55 c7 -29 18 -60 24 -66z m-872 -30 c0
-1 -14 3 -30 9 -21 7 -29 15 -26 27 3 9 8 34 12 56 l7 40 18 -65 c10 -36 18
-66 19 -67z m401 47 c18 -57 43 -69 139 -70 53 -1 69 -4 54 -10 -27 -11 -54
-48 -54 -75 0 -28 27 -64 56 -75 18 -7 49 -2 122 21 106 34 102 34 195 -17 48
-27 107 12 107 72 0 25 -9 40 -42 69 l-42 38 149 -7 c82 -4 150 -8 151 -9 7
-8 -169 -855 -189 -907 -90 -239 -252 -447 -408 -524 -127 -62 -245 -78 -374
-51 -101 21 -186 67 -267 144 -144 135 -244 299 -299 491 -17 57 -159 800
-159 829 0 7 30 11 86 11 l86 0 -26 -31 c-32 -38 -33 -70 -3 -105 29 -33 72
-36 113 -7 50 35 68 36 168 4 52 -17 103 -28 113 -24 67 23 84 94 32 137 l-31
26 117 0 c108 0 117 2 139 23 16 16 26 42 31 78 8 57 9 57 36 -31z m-56 -1717
c61 -3 121 -1 154 6 30 6 55 10 57 9 1 -2 7 -38 13 -80 13 -97 41 -176 87
-251 l36 -58 -15 -74 c-19 -93 -41 -139 -90 -188 -58 -58 -117 -82 -207 -82
-90 0 -149 24 -207 82 -48 48 -71 95 -89 187 l-15 72 35 59 c50 82 76 156 89
253 11 76 13 83 32 77 11 -3 65 -9 120 -12z m-410 -535 c22 -106 118 -232 222
-290 l54 -31 -43 -45 c-51 -53 -108 -81 -162 -82 -57 0 -122 35 -154 83 -26
39 -27 47 -30 191 l-3 151 48 26 c62 34 60 34 68 -3z m957 5 l49 -28 -3 -151
c-3 -144 -4 -152 -30 -191 -32 -48 -97 -83 -154 -83 -54 1 -111 29 -162 82
l-43 45 53 31 c103 58 201 185 223 290 4 17 9 32 12 32 3 0 27 -12 55 -27z"/>
<path d="M2100 3239 c-75 -16 -118 -106 -84 -175 26 -52 64 -77 116 -77 76 0
128 52 128 128 0 89 -69 143 -160 124z"/>
<path d="M2882 3239 c-127 -26 -128 -215 -2 -249 99 -27 187 62 160 161 -19
67 -85 104 -158 88z"/>
<path d="M2445 3066 c-47 -47 -48 -176 -2 -245 34 -51 93 -91 146 -98 33 -5
44 -1 65 20 34 34 34 79 1 112 -13 14 -31 25 -39 25 -31 0 -48 45 -41 104 7
50 5 57 -18 80 -34 34 -80 34 -112 2z"/>
<path d="M2715 2664 c-85 -24 -201 -28 -285 -10 -107 23 -135 21 -159 -10 -45
-57 -11 -115 79 -140 160 -43 450 -16 510 48 27 30 26 79 -3 106 -27 25 -67
27 -142 6z"/>
</g>
</svg>
